<mxfile host="app.diagrams.net" agent="Mozilla/5.0 (Macintosh; Intel Mac OS X 10_15_7) AppleWebKit/537.36 (KHTML, like Gecko) Chrome/134.0.0.0 Safari/537.36 Edg/134.0.0.0" version="26.2.2">
  <diagram name="第 1 页" id="lDRHs1vWMW8rRtZhULNQ">
    <mxGraphModel dx="1420" dy="769" grid="1" gridSize="10" guides="1" tooltips="1" connect="1" arrows="1" fold="1" page="1" pageScale="1" pageWidth="827" pageHeight="1169" math="0" shadow="0">
      <root>
        <mxCell id="0" />
        <mxCell id="1" parent="0" />
        <mxCell id="-5UvgRodPuGzwoQMVwGI-15" style="edgeStyle=orthogonalEdgeStyle;rounded=0;orthogonalLoop=1;jettySize=auto;html=1;" edge="1" parent="1" source="Ms6r0AXBp3TNDa4eyP1D-1" target="-5UvgRodPuGzwoQMVwGI-1">
          <mxGeometry relative="1" as="geometry" />
        </mxCell>
        <mxCell id="-5UvgRodPuGzwoQMVwGI-16" value="修改数据时发送修改数据消息&lt;br&gt;修改内容在消息体内" style="edgeLabel;html=1;align=center;verticalAlign=middle;resizable=0;points=[];" vertex="1" connectable="0" parent="-5UvgRodPuGzwoQMVwGI-15">
          <mxGeometry x="0.2" y="-1" relative="1" as="geometry">
            <mxPoint as="offset" />
          </mxGeometry>
        </mxCell>
        <mxCell id="Ms6r0AXBp3TNDa4eyP1D-1" value="上游服务" style="rounded=1;whiteSpace=wrap;html=1;" parent="1" vertex="1">
          <mxGeometry x="140" y="60" width="110" height="50" as="geometry" />
        </mxCell>
        <mxCell id="-5UvgRodPuGzwoQMVwGI-23" style="edgeStyle=orthogonalEdgeStyle;rounded=0;orthogonalLoop=1;jettySize=auto;html=1;entryX=0;entryY=0.5;entryDx=0;entryDy=0;" edge="1" parent="1" source="Ms6r0AXBp3TNDa4eyP1D-2" target="-5UvgRodPuGzwoQMVwGI-5">
          <mxGeometry relative="1" as="geometry" />
        </mxCell>
        <mxCell id="-5UvgRodPuGzwoQMVwGI-30" value="一次性加载 Redis 数据" style="edgeLabel;html=1;align=center;verticalAlign=middle;resizable=0;points=[];" vertex="1" connectable="0" parent="-5UvgRodPuGzwoQMVwGI-23">
          <mxGeometry x="-0.0389" y="4" relative="1" as="geometry">
            <mxPoint y="1" as="offset" />
          </mxGeometry>
        </mxCell>
        <mxCell id="Ms6r0AXBp3TNDa4eyP1D-2" value="&amp;nbsp;Redis" style="shape=cylinder3;whiteSpace=wrap;html=1;boundedLbl=1;backgroundOutline=1;size=15;fillColor=#fff2cc;strokeColor=#d6b656;" parent="1" vertex="1">
          <mxGeometry x="165" y="180" width="60" height="80" as="geometry" />
        </mxCell>
        <mxCell id="Ms6r0AXBp3TNDa4eyP1D-3" value="" style="endArrow=classic;html=1;rounded=0;exitX=0.5;exitY=1;exitDx=0;exitDy=0;entryX=0.5;entryY=0;entryDx=0;entryDy=0;entryPerimeter=0;" parent="1" source="Ms6r0AXBp3TNDa4eyP1D-1" target="Ms6r0AXBp3TNDa4eyP1D-2" edge="1">
          <mxGeometry width="50" height="50" relative="1" as="geometry">
            <mxPoint x="-30" y="230" as="sourcePoint" />
            <mxPoint x="20" y="180" as="targetPoint" />
          </mxGeometry>
        </mxCell>
        <mxCell id="Ms6r0AXBp3TNDa4eyP1D-4" value="&amp;nbsp;修改或者删除键值对" style="edgeLabel;html=1;align=center;verticalAlign=middle;resizable=0;points=[];" parent="Ms6r0AXBp3TNDa4eyP1D-3" vertex="1" connectable="0">
          <mxGeometry x="-0.0571" y="1" relative="1" as="geometry">
            <mxPoint as="offset" />
          </mxGeometry>
        </mxCell>
        <mxCell id="-5UvgRodPuGzwoQMVwGI-4" value="" style="edgeStyle=orthogonalEdgeStyle;rounded=0;orthogonalLoop=1;jettySize=auto;html=1;entryX=0.5;entryY=0;entryDx=0;entryDy=0;" edge="1" parent="1" source="Ms6r0AXBp3TNDa4eyP1D-7" target="-5UvgRodPuGzwoQMVwGI-5">
          <mxGeometry relative="1" as="geometry">
            <mxPoint x="395" y="260" as="targetPoint" />
          </mxGeometry>
        </mxCell>
        <mxCell id="Ms6r0AXBp3TNDa4eyP1D-7" value="下游服务" style="rounded=1;whiteSpace=wrap;html=1;" parent="1" vertex="1">
          <mxGeometry x="340" y="170" width="110" height="50" as="geometry" />
        </mxCell>
        <mxCell id="-5UvgRodPuGzwoQMVwGI-26" style="edgeStyle=orthogonalEdgeStyle;rounded=0;orthogonalLoop=1;jettySize=auto;html=1;entryX=1;entryY=0.5;entryDx=0;entryDy=0;" edge="1" parent="1" source="-5UvgRodPuGzwoQMVwGI-1" target="-5UvgRodPuGzwoQMVwGI-28">
          <mxGeometry relative="1" as="geometry">
            <mxPoint x="580" y="440" as="targetPoint" />
            <Array as="points">
              <mxPoint x="580" y="465" />
            </Array>
          </mxGeometry>
        </mxCell>
        <mxCell id="-5UvgRodPuGzwoQMVwGI-29" value="消费消息队列消息" style="edgeLabel;html=1;align=center;verticalAlign=middle;resizable=0;points=[];" vertex="1" connectable="0" parent="-5UvgRodPuGzwoQMVwGI-26">
          <mxGeometry x="-0.3617" relative="1" as="geometry">
            <mxPoint as="offset" />
          </mxGeometry>
        </mxCell>
        <mxCell id="-5UvgRodPuGzwoQMVwGI-1" value="Kafka" style="shape=cylinder3;whiteSpace=wrap;html=1;boundedLbl=1;backgroundOutline=1;size=15;fillColor=#fff2cc;strokeColor=#d6b656;" vertex="1" parent="1">
          <mxGeometry x="550" y="45" width="60" height="80" as="geometry" />
        </mxCell>
        <mxCell id="-5UvgRodPuGzwoQMVwGI-24" style="edgeStyle=orthogonalEdgeStyle;rounded=0;orthogonalLoop=1;jettySize=auto;html=1;entryX=0.5;entryY=0;entryDx=0;entryDy=0;" edge="1" parent="1" source="-5UvgRodPuGzwoQMVwGI-5" target="-5UvgRodPuGzwoQMVwGI-25">
          <mxGeometry relative="1" as="geometry">
            <mxPoint x="395" y="360" as="targetPoint" />
          </mxGeometry>
        </mxCell>
        <mxCell id="-5UvgRodPuGzwoQMVwGI-5" value="启动时预热&lt;br&gt;本地缓存数据" style="rounded=1;whiteSpace=wrap;html=1;" vertex="1" parent="1">
          <mxGeometry x="340" y="260" width="110" height="50" as="geometry" />
        </mxCell>
        <mxCell id="-5UvgRodPuGzwoQMVwGI-27" style="edgeStyle=orthogonalEdgeStyle;rounded=0;orthogonalLoop=1;jettySize=auto;html=1;entryX=0.5;entryY=0;entryDx=0;entryDy=0;" edge="1" parent="1" source="-5UvgRodPuGzwoQMVwGI-25" target="-5UvgRodPuGzwoQMVwGI-28">
          <mxGeometry relative="1" as="geometry">
            <mxPoint x="395" y="450" as="targetPoint" />
          </mxGeometry>
        </mxCell>
        <mxCell id="-5UvgRodPuGzwoQMVwGI-25" value="维护本地缓存" style="rounded=1;whiteSpace=wrap;html=1;" vertex="1" parent="1">
          <mxGeometry x="340" y="350" width="110" height="50" as="geometry" />
        </mxCell>
        <mxCell id="-5UvgRodPuGzwoQMVwGI-28" value="更新本地缓存值" style="rounded=1;whiteSpace=wrap;html=1;" vertex="1" parent="1">
          <mxGeometry x="340" y="440" width="110" height="50" as="geometry" />
        </mxCell>
      </root>
    </mxGraphModel>
  </diagram>
</mxfile>
